<svg width="150" height="125" viewBox="0 0 150 125" fill="none" xmlns="http://www.w3.org/2000/svg">
<rect x="75" y="25" width="25" height="25" fill="white"/>
<rect x="75" width="25" height="25" fill="black"/>
<rect x="75" y="50" width="25" height="25" fill="black"/>
<rect x="50" width="25" height="25" fill="black"/>
<rect x="25" width="25" height="25" fill="black"/>
<rect x="25" y="25" width="25" height="25" fill="black"/>
<rect x="50" y="25" width="25" height="25" fill="black"/>
<rect x="25" y="50" width="25" height="25" fill="black"/>
<rect y="75" width="25" height="25" fill="black"/>
<rect x="125" y="75" width="25" height="25" fill="black"/>
<rect x="125" y="100" width="25" height="25" fill="black"/>
<rect x="100" y="75" width="25" height="25" fill="black"/>
<rect x="75" y="75" width="25" height="25" fill="black"/>
<rect x="75" y="100" width="25" height="25" fill="black"/>
<rect x="50" y="75" width="25" height="25" fill="black"/>
<rect x="25" y="75" width="25" height="25" fill="black"/>
<rect x="25" y="100" width="25" height="25" fill="black"/>
<rect x="50" y="50" width="25" height="25" fill="black"/>
<rect x="100" y="25" width="25" height="25" fill="black"/>
<rect x="100" width="25" height="25" fill="black"/>
<rect x="100" y="50" width="25" height="25" fill="black"/>
<rect x="125" y="25" width="25" height="25" fill="white"/>
<rect x="125" width="25" height="25" fill="black"/>
<rect x="125" y="50" width="25" height="25" fill="black"/>
</svg>
